<?xml version="1.0" encoding="UTF-8"?>
<svg xmlns="http://www.w3.org/2000/svg" id="Layer_1" data-name="Layer 1" viewBox="0 0 24 24">
  <path d="M19.756,5.993c-.068-.016-.862-.202-2.107-.396l-.661-3.075c-.126-.583-.584-1.036-1.169-1.155-.074-.015-1.839-.368-3.818-.368s-3.745,.354-3.819,.369c-.584,.119-1.042,.572-1.168,1.154l-.661,3.075c-1.244,.193-2.038,.379-2.106,.395-.807,.19-1.306,.999-1.115,1.805,.161,.684,.767,1.146,1.439,1.155-.1,1.28-.173,2.786-.173,4.227,0,4.659,.752,8.084,.784,8.228,.078,.353,.342,.636,.688,.74,.116,.035,2.875,.853,6.132,.853s6.015-.817,6.131-.852c.348-.104,.611-.388,.689-.743,.032-.145,.783-3.605,.783-8.225,0-1.449-.072-2.953-.171-4.228,.671-.01,1.275-.472,1.437-1.155,.19-.806-.308-1.613-1.113-1.804Zm-10.257-.763l.231-1.072c1.194-.157,3.34-.158,4.54,0l.23,1.072c-.913-.062-1.792-.091-2.674-.087-.008,0-.016,0-.025,0-.757,.004-1.517,.033-2.303,.087Zm1.336,12.715c0,.552-.447,1-1,1s-1-.448-1-1v-7.231c0-.552,.447-1,1-1s1,.448,1,1v7.231Zm4.33,0c0,.552-.447,1-1,1s-1-.448-1-1v-7.231c0-.552,.447-1,1-1s1,.448,1,1v7.231Z"/>
</svg>
